<mxfile host="app.diagrams.net" agent="Mozilla/5.0 (Windows NT 10.0; Win64; x64) AppleWebKit/537.36 (KHTML, like Gecko) Chrome/132.0.0.0 Safari/537.36" version="26.0.12">
  <diagram name="페이지-1" id="Qp0Jv9kVQiKVge1C8Yr8">
    <mxGraphModel dx="1434" dy="772" grid="1" gridSize="10" guides="1" tooltips="1" connect="1" arrows="1" fold="1" page="1" pageScale="1" pageWidth="827" pageHeight="1169" math="0" shadow="0">
      <root>
        <mxCell id="0" />
        <mxCell id="1" parent="0" />
        <mxCell id="TYZHMslHJf5c7nkN_WYL-1" value="" style="rounded=1;whiteSpace=wrap;html=1;dashed=1;" vertex="1" parent="1">
          <mxGeometry x="30" y="110" width="620" height="430" as="geometry" />
        </mxCell>
        <mxCell id="TYZHMslHJf5c7nkN_WYL-3" value="" style="rounded=1;whiteSpace=wrap;html=1;" vertex="1" parent="1">
          <mxGeometry x="70" y="150" width="289.29" height="150" as="geometry" />
        </mxCell>
        <mxCell id="TYZHMslHJf5c7nkN_WYL-4" value="&lt;font&gt;웹 브라우저&lt;/font&gt;" style="verticalAlign=top;verticalLabelPosition=bottom;labelPosition=center;align=center;html=1;outlineConnect=0;gradientDirection=north;strokeWidth=1;shape=mxgraph.networks.pc;fillColor=#d5e8d4;strokeColor=#82b366;" vertex="1" parent="1">
          <mxGeometry x="100" y="180" width="100" height="70" as="geometry" />
        </mxCell>
        <mxCell id="TYZHMslHJf5c7nkN_WYL-5" value="모바일 앱" style="outlineConnect=0;dashed=0;verticalLabelPosition=bottom;verticalAlign=top;align=center;html=1;shape=mxgraph.aws3.mobile_client;fillColor=#f8cecc;strokeColor=#b85450;" vertex="1" parent="1">
          <mxGeometry x="250" y="187" width="40.5" height="63" as="geometry" />
        </mxCell>
        <mxCell id="TYZHMslHJf5c7nkN_WYL-6" value="클라이언트1" style="text;html=1;align=center;verticalAlign=middle;resizable=0;points=[];autosize=1;strokeColor=none;fillColor=none;" vertex="1" parent="1">
          <mxGeometry x="160" y="120" width="90" height="30" as="geometry" />
        </mxCell>
        <mxCell id="TYZHMslHJf5c7nkN_WYL-7" value="" style="rounded=1;whiteSpace=wrap;html=1;" vertex="1" parent="1">
          <mxGeometry x="70" y="360" width="289.29" height="150" as="geometry" />
        </mxCell>
        <mxCell id="TYZHMslHJf5c7nkN_WYL-8" value="&lt;font&gt;웹 브라우저&lt;/font&gt;" style="verticalAlign=top;verticalLabelPosition=bottom;labelPosition=center;align=center;html=1;outlineConnect=0;gradientDirection=north;strokeWidth=1;shape=mxgraph.networks.pc;fillColor=#d5e8d4;strokeColor=#82b366;" vertex="1" parent="1">
          <mxGeometry x="100" y="390" width="100" height="70" as="geometry" />
        </mxCell>
        <mxCell id="TYZHMslHJf5c7nkN_WYL-9" value="모바일 앱" style="outlineConnect=0;dashed=0;verticalLabelPosition=bottom;verticalAlign=top;align=center;html=1;shape=mxgraph.aws3.mobile_client;fillColor=#f8cecc;strokeColor=#b85450;" vertex="1" parent="1">
          <mxGeometry x="250" y="397" width="40.5" height="63" as="geometry" />
        </mxCell>
        <mxCell id="TYZHMslHJf5c7nkN_WYL-10" value="클라이언트2" style="text;html=1;align=center;verticalAlign=middle;resizable=0;points=[];autosize=1;strokeColor=none;fillColor=none;" vertex="1" parent="1">
          <mxGeometry x="160" y="330" width="90" height="30" as="geometry" />
        </mxCell>
        <mxCell id="TYZHMslHJf5c7nkN_WYL-11" value="처리율 제한 장치 1" style="shape=parallelogram;perimeter=parallelogramPerimeter;whiteSpace=wrap;html=1;fixedSize=1;" vertex="1" parent="1">
          <mxGeometry x="460" y="190" width="160" height="70" as="geometry" />
        </mxCell>
        <mxCell id="TYZHMslHJf5c7nkN_WYL-12" value="처리율 제한 장치 2" style="shape=parallelogram;perimeter=parallelogramPerimeter;whiteSpace=wrap;html=1;fixedSize=1;" vertex="1" parent="1">
          <mxGeometry x="460" y="397" width="160" height="70" as="geometry" />
        </mxCell>
        <mxCell id="TYZHMslHJf5c7nkN_WYL-13" value="" style="endArrow=classic;html=1;rounded=0;exitX=1;exitY=0.5;exitDx=0;exitDy=0;entryX=0;entryY=0.5;entryDx=0;entryDy=0;" edge="1" parent="1" source="TYZHMslHJf5c7nkN_WYL-7" target="TYZHMslHJf5c7nkN_WYL-12">
          <mxGeometry width="50" height="50" relative="1" as="geometry">
            <mxPoint x="390" y="420" as="sourcePoint" />
            <mxPoint x="440" y="370" as="targetPoint" />
          </mxGeometry>
        </mxCell>
        <mxCell id="TYZHMslHJf5c7nkN_WYL-14" value="" style="endArrow=classic;html=1;rounded=0;exitX=1;exitY=0.5;exitDx=0;exitDy=0;entryX=0;entryY=0.5;entryDx=0;entryDy=0;" edge="1" parent="1" source="TYZHMslHJf5c7nkN_WYL-3" target="TYZHMslHJf5c7nkN_WYL-11">
          <mxGeometry width="50" height="50" relative="1" as="geometry">
            <mxPoint x="390" y="420" as="sourcePoint" />
            <mxPoint x="440" y="370" as="targetPoint" />
          </mxGeometry>
        </mxCell>
        <mxCell id="TYZHMslHJf5c7nkN_WYL-15" value="" style="rounded=1;whiteSpace=wrap;html=1;dashed=1;" vertex="1" parent="1">
          <mxGeometry x="700" y="110" width="620" height="430" as="geometry" />
        </mxCell>
        <mxCell id="TYZHMslHJf5c7nkN_WYL-16" value="" style="rounded=1;whiteSpace=wrap;html=1;" vertex="1" parent="1">
          <mxGeometry x="740" y="150" width="289.29" height="150" as="geometry" />
        </mxCell>
        <mxCell id="TYZHMslHJf5c7nkN_WYL-17" value="&lt;font&gt;웹 브라우저&lt;/font&gt;" style="verticalAlign=top;verticalLabelPosition=bottom;labelPosition=center;align=center;html=1;outlineConnect=0;gradientDirection=north;strokeWidth=1;shape=mxgraph.networks.pc;fillColor=#d5e8d4;strokeColor=#82b366;" vertex="1" parent="1">
          <mxGeometry x="770" y="180" width="100" height="70" as="geometry" />
        </mxCell>
        <mxCell id="TYZHMslHJf5c7nkN_WYL-18" value="모바일 앱" style="outlineConnect=0;dashed=0;verticalLabelPosition=bottom;verticalAlign=top;align=center;html=1;shape=mxgraph.aws3.mobile_client;fillColor=#f8cecc;strokeColor=#b85450;" vertex="1" parent="1">
          <mxGeometry x="920" y="187" width="40.5" height="63" as="geometry" />
        </mxCell>
        <mxCell id="TYZHMslHJf5c7nkN_WYL-19" value="클라이언트1" style="text;html=1;align=center;verticalAlign=middle;resizable=0;points=[];autosize=1;strokeColor=none;fillColor=none;" vertex="1" parent="1">
          <mxGeometry x="830" y="120" width="90" height="30" as="geometry" />
        </mxCell>
        <mxCell id="TYZHMslHJf5c7nkN_WYL-20" value="" style="rounded=1;whiteSpace=wrap;html=1;" vertex="1" parent="1">
          <mxGeometry x="740" y="360" width="289.29" height="150" as="geometry" />
        </mxCell>
        <mxCell id="TYZHMslHJf5c7nkN_WYL-21" value="&lt;font&gt;웹 브라우저&lt;/font&gt;" style="verticalAlign=top;verticalLabelPosition=bottom;labelPosition=center;align=center;html=1;outlineConnect=0;gradientDirection=north;strokeWidth=1;shape=mxgraph.networks.pc;fillColor=#d5e8d4;strokeColor=#82b366;" vertex="1" parent="1">
          <mxGeometry x="770" y="390" width="100" height="70" as="geometry" />
        </mxCell>
        <mxCell id="TYZHMslHJf5c7nkN_WYL-22" value="모바일 앱" style="outlineConnect=0;dashed=0;verticalLabelPosition=bottom;verticalAlign=top;align=center;html=1;shape=mxgraph.aws3.mobile_client;fillColor=#f8cecc;strokeColor=#b85450;" vertex="1" parent="1">
          <mxGeometry x="920" y="397" width="40.5" height="63" as="geometry" />
        </mxCell>
        <mxCell id="TYZHMslHJf5c7nkN_WYL-23" value="클라이언트2" style="text;html=1;align=center;verticalAlign=middle;resizable=0;points=[];autosize=1;strokeColor=none;fillColor=none;" vertex="1" parent="1">
          <mxGeometry x="830" y="330" width="90" height="30" as="geometry" />
        </mxCell>
        <mxCell id="TYZHMslHJf5c7nkN_WYL-24" value="처리율 제한 장치 1" style="shape=parallelogram;perimeter=parallelogramPerimeter;whiteSpace=wrap;html=1;fixedSize=1;" vertex="1" parent="1">
          <mxGeometry x="1130" y="190" width="160" height="70" as="geometry" />
        </mxCell>
        <mxCell id="TYZHMslHJf5c7nkN_WYL-25" value="처리율 제한 장치 2" style="shape=parallelogram;perimeter=parallelogramPerimeter;whiteSpace=wrap;html=1;fixedSize=1;" vertex="1" parent="1">
          <mxGeometry x="1130" y="397" width="160" height="70" as="geometry" />
        </mxCell>
        <mxCell id="TYZHMslHJf5c7nkN_WYL-26" value="" style="endArrow=classic;html=1;rounded=0;exitX=1;exitY=0.5;exitDx=0;exitDy=0;entryX=0;entryY=0.5;entryDx=0;entryDy=0;" edge="1" parent="1" source="TYZHMslHJf5c7nkN_WYL-20" target="TYZHMslHJf5c7nkN_WYL-24">
          <mxGeometry width="50" height="50" relative="1" as="geometry">
            <mxPoint x="1060" y="420" as="sourcePoint" />
            <mxPoint x="1110" y="370" as="targetPoint" />
          </mxGeometry>
        </mxCell>
        <mxCell id="TYZHMslHJf5c7nkN_WYL-27" value="" style="endArrow=classic;html=1;rounded=0;exitX=1;exitY=0.5;exitDx=0;exitDy=0;entryX=0;entryY=0.5;entryDx=0;entryDy=0;" edge="1" parent="1" source="TYZHMslHJf5c7nkN_WYL-16" target="TYZHMslHJf5c7nkN_WYL-25">
          <mxGeometry width="50" height="50" relative="1" as="geometry">
            <mxPoint x="1060" y="420" as="sourcePoint" />
            <mxPoint x="1110" y="370" as="targetPoint" />
          </mxGeometry>
        </mxCell>
      </root>
    </mxGraphModel>
  </diagram>
</mxfile>
